<?xml version="1.0" encoding="UTF-8" standalone="no"?><svg xmlns="http://www.w3.org/2000/svg" xmlns:xlink="http://www.w3.org/1999/xlink" contentScriptType="application/ecmascript" contentStyleType="text/css" height="432px" preserveAspectRatio="none" style="width:322px;height:432px;" version="1.1" viewBox="0 0 322 432" width="322px" zoomAndPan="magnify"><defs><filter height="300%" id="f1wtycms6e7deb" width="300%" x="-1" y="-1"><feGaussianBlur result="blurOut" stdDeviation="2.0"/><feColorMatrix in="blurOut" result="blurOut2" type="matrix" values="0 0 0 0 0 0 0 0 0 0 0 0 0 0 0 0 0 0 .4 0"/><feOffset dx="4.0" dy="4.0" in="blurOut2" result="blurOut3"/><feBlend in="SourceGraphic" in2="blurOut3" mode="normal"/></filter></defs><g><rect codeLine="2" fill="#FEFECE" filter="url(#f1wtycms6e7deb)" height="48" id="Command" style="stroke:#A80036;stroke-width:1.5;" width="94" x="7" y="121.5"/><ellipse cx="22" cy="137.5" fill="#ADD1B2" rx="11" ry="11" style="stroke:#A80036;stroke-width:1.0;"/><path d="M24.9688,143.1406 Q24.3906,143.4375 23.75,143.5859 Q23.1094,143.7344 22.4063,143.7344 Q19.9063,143.7344 18.5859,142.0859 Q17.2656,140.4375 17.2656,137.3125 Q17.2656,134.1875 18.5859,132.5313 Q19.9063,130.875 22.4063,130.875 Q23.1094,130.875 23.7578,131.0313 Q24.4063,131.1875 24.9688,131.4844 L24.9688,134.2031 Q24.3438,133.625 23.75,133.3516 Q23.1563,133.0781 22.5313,133.0781 Q21.1875,133.0781 20.5,134.1484 Q19.8125,135.2188 19.8125,137.3125 Q19.8125,139.4063 20.5,140.4766 Q21.1875,141.5469 22.5313,141.5469 Q23.1563,141.5469 23.75,141.2734 Q24.3438,141 24.9688,140.4219 L24.9688,143.1406 Z " fill="#000000"/><text fill="#000000" font-family="sans-serif" font-size="12" lengthAdjust="spacing" textLength="62" x="36" y="141.6543">Command</text><line style="stroke:#A80036;stroke-width:1.5;" x1="8" x2="100" y1="153.5" y2="153.5"/><line style="stroke:#A80036;stroke-width:1.5;" x1="8" x2="100" y1="161.5" y2="161.5"/><rect codeLine="3" fill="#FEFECE" filter="url(#f1wtycms6e7deb)" height="60.8047" id="Receiver" style="stroke:#A80036;stroke-width:1.5;" width="85" x="136.5" y="115"/><ellipse cx="151.5" cy="131" fill="#ADD1B2" rx="11" ry="11" style="stroke:#A80036;stroke-width:1.0;"/><path d="M154.4688,136.6406 Q153.8906,136.9375 153.25,137.0859 Q152.6094,137.2344 151.9063,137.2344 Q149.4063,137.2344 148.0859,135.5859 Q146.7656,133.9375 146.7656,130.8125 Q146.7656,127.6875 148.0859,126.0313 Q149.4063,124.375 151.9063,124.375 Q152.6094,124.375 153.2578,124.5313 Q153.9063,124.6875 154.4688,124.9844 L154.4688,127.7031 Q153.8438,127.125 153.25,126.8516 Q152.6563,126.5781 152.0313,126.5781 Q150.6875,126.5781 150,127.6484 Q149.3125,128.7188 149.3125,130.8125 Q149.3125,132.9063 150,133.9766 Q150.6875,135.0469 152.0313,135.0469 Q152.6563,135.0469 153.25,134.7734 Q153.8438,134.5 154.4688,133.9219 L154.4688,136.6406 Z " fill="#000000"/><text fill="#000000" font-family="sans-serif" font-size="12" lengthAdjust="spacing" textLength="53" x="165.5" y="135.1543">Receiver</text><line style="stroke:#A80036;stroke-width:1.5;" x1="137.5" x2="220.5" y1="147" y2="147"/><line style="stroke:#A80036;stroke-width:1.5;" x1="137.5" x2="220.5" y1="155" y2="155"/><ellipse cx="147.5" cy="166" fill="#84BE84" rx="3" ry="3" style="stroke:#038048;stroke-width:1.0;"/><text fill="#000000" font-family="sans-serif" font-size="11" lengthAdjust="spacing" textLength="42" x="156.5" y="169.2104">action()</text><rect codeLine="6" fill="#FEFECE" filter="url(#f1wtycms6e7deb)" height="73.6094" id="ConcreteCommand" style="stroke:#A80036;stroke-width:1.5;" width="151" x="69.5" y="236"/><ellipse cx="84.5" cy="252" fill="#ADD1B2" rx="11" ry="11" style="stroke:#A80036;stroke-width:1.0;"/><path d="M87.4688,257.6406 Q86.8906,257.9375 86.25,258.0859 Q85.6094,258.2344 84.9063,258.2344 Q82.4063,258.2344 81.0859,256.5859 Q79.7656,254.9375 79.7656,251.8125 Q79.7656,248.6875 81.0859,247.0313 Q82.4063,245.375 84.9063,245.375 Q85.6094,245.375 86.2578,245.5313 Q86.9063,245.6875 87.4688,245.9844 L87.4688,248.7031 Q86.8438,248.125 86.25,247.8516 Q85.6563,247.5781 85.0313,247.5781 Q83.6875,247.5781 83,248.6484 Q82.3125,249.7188 82.3125,251.8125 Q82.3125,253.9063 83,254.9766 Q83.6875,256.0469 85.0313,256.0469 Q85.6563,256.0469 86.25,255.7734 Q86.8438,255.5 87.4688,254.9219 L87.4688,257.6406 Z " fill="#000000"/><text fill="#000000" font-family="sans-serif" font-size="12" lengthAdjust="spacing" textLength="119" x="98.5" y="256.1543">ConcreteCommand</text><line style="stroke:#A80036;stroke-width:1.5;" x1="70.5" x2="219.5" y1="268" y2="268"/><rect fill="none" height="6" style="stroke:#C82930;stroke-width:1.0;" width="6" x="77.5" y="276"/><text fill="#000000" font-family="sans-serif" font-size="11" lengthAdjust="spacing" textLength="29" x="89.5" y="282.2104">state</text><line style="stroke:#A80036;stroke-width:1.5;" x1="70.5" x2="219.5" y1="288.8047" y2="288.8047"/><ellipse cx="80.5" cy="299.8047" fill="#84BE84" rx="3" ry="3" style="stroke:#038048;stroke-width:1.0;"/><text fill="#000000" font-family="sans-serif" font-size="11" lengthAdjust="spacing" textLength="52" x="89.5" y="303.0151">execute()</text><path d="M84,381.5 L84,406.6328 A0,0 0 0 0 84,406.6328 L206,406.6328 A0,0 0 0 0 206,406.6328 L206,391.5 L196,381.5 L149,381.5 L145,310.2913 L141,381.5 L84,381.5 A0,0 0 0 0 84,381.5 " fill="#FBFB77" filter="url(#f1wtycms6e7deb)" style="stroke:#A80036;stroke-width:1.0;"/><path d="M196,381.5 L196,391.5 L206,391.5 L196,381.5 " fill="#FBFB77" style="stroke:#A80036;stroke-width:1.0;"/><text fill="#000000" font-family="sans-serif" font-size="13" lengthAdjust="spacing" textLength="101" x="90" y="398.5669">recever.action()</text><rect codeLine="12" fill="#FEFECE" filter="url(#f1wtycms6e7deb)" height="48" id="Client" style="stroke:#A80036;stroke-width:1.5;" width="67" x="241.5" y="370"/><ellipse cx="256.5" cy="386" fill="#ADD1B2" rx="11" ry="11" style="stroke:#A80036;stroke-width:1.0;"/><path d="M259.4688,391.6406 Q258.8906,391.9375 258.25,392.0859 Q257.6094,392.2344 256.9063,392.2344 Q254.4063,392.2344 253.0859,390.5859 Q251.7656,388.9375 251.7656,385.8125 Q251.7656,382.6875 253.0859,381.0313 Q254.4063,379.375 256.9063,379.375 Q257.6094,379.375 258.2578,379.5313 Q258.9063,379.6875 259.4688,379.9844 L259.4688,382.7031 Q258.8438,382.125 258.25,381.8516 Q257.6563,381.5781 257.0313,381.5781 Q255.6875,381.5781 255,382.6484 Q254.3125,383.7188 254.3125,385.8125 Q254.3125,387.9063 255,388.9766 Q255.6875,390.0469 257.0313,390.0469 Q257.6563,390.0469 258.25,389.7734 Q258.8438,389.5 259.4688,388.9219 L259.4688,391.6406 Z " fill="#000000"/><text fill="#000000" font-family="sans-serif" font-size="12" lengthAdjust="spacing" textLength="35" x="270.5" y="390.1543">Client</text><line style="stroke:#A80036;stroke-width:1.5;" x1="242.5" x2="307.5" y1="402" y2="402"/><line style="stroke:#A80036;stroke-width:1.5;" x1="242.5" x2="307.5" y1="410" y2="410"/><rect codeLine="13" fill="#FEFECE" filter="url(#f1wtycms6e7deb)" height="48" id="Invoke" style="stroke:#A80036;stroke-width:1.5;" width="72" x="128" y="7"/><ellipse cx="143" cy="23" fill="#ADD1B2" rx="11" ry="11" style="stroke:#A80036;stroke-width:1.0;"/><path d="M145.9688,28.6406 Q145.3906,28.9375 144.75,29.0859 Q144.1094,29.2344 143.4063,29.2344 Q140.9063,29.2344 139.5859,27.5859 Q138.2656,25.9375 138.2656,22.8125 Q138.2656,19.6875 139.5859,18.0313 Q140.9063,16.375 143.4063,16.375 Q144.1094,16.375 144.7578,16.5313 Q145.4063,16.6875 145.9688,16.9844 L145.9688,19.7031 Q145.3438,19.125 144.75,18.8516 Q144.1563,18.5781 143.5313,18.5781 Q142.1875,18.5781 141.5,19.6484 Q140.8125,20.7188 140.8125,22.8125 Q140.8125,24.9063 141.5,25.9766 Q142.1875,27.0469 143.5313,27.0469 Q144.1563,27.0469 144.75,26.7734 Q145.3438,26.5 145.9688,25.9219 L145.9688,28.6406 Z " fill="#000000"/><text fill="#000000" font-family="sans-serif" font-size="12" lengthAdjust="spacing" textLength="40" x="157" y="27.1543">Invoke</text><line style="stroke:#A80036;stroke-width:1.5;" x1="129" x2="199" y1="39" y2="39"/><line style="stroke:#A80036;stroke-width:1.5;" x1="129" x2="199" y1="47" y2="47"/><path codeLine="16" d="M165.6722,195.4791 C162.0822,208.9418 158.2627,223.265 154.8963,235.8888 " fill="none" id="Receiver-backto-ConcreteCommand" style="stroke:#A80036;stroke-width:1.0;stroke-dasharray:7.0,7.0;"/><polygon fill="none" points="158.9392,193.5605,170.8562,176.0394,172.4665,197.1678,158.9392,193.5605" style="stroke:#A80036;stroke-width:1.0;"/><path codeLine="17" d="M83.0725,186.2334 C94.4145,202.1247 107.3296,220.2201 118.4201,235.7589 " fill="none" id="Command-backto-ConcreteCommand" style="stroke:#A80036;stroke-width:1.0;"/><polygon fill="none" points="77.2517,190.1275,71.3306,169.7819,88.647,181.9943,77.2517,190.1275" style="stroke:#A80036;stroke-width:1.0;"/><path codeLine="18" d="M196.8162,58.9242 C212.2058,73.9224 229.2628,93.6893 239,115 C278.8834,202.2887 278.7499,319.9557 276.5333,369.9372 " fill="none" id="Invoke-backto-Client" style="stroke:#A80036;stroke-width:1.0;stroke-dasharray:7.0,7.0;"/><polygon fill="#A80036" points="192.945,55.2158,196.6771,64.3301,196.5556,58.6746,202.2112,58.5531,192.945,55.2158" style="stroke:#A80036;stroke-width:1.0;"/><path codeLine="19" d="M189.0266,313.9786 C209.0455,332.6116 232.0373,354.0116 249.2045,369.9903 " fill="none" id="ConcreteCommand-backto-Client" style="stroke:#A80036;stroke-width:1.0;stroke-dasharray:7.0,7.0;"/><polygon fill="#A80036" points="185.065,310.2913,188.9277,319.3511,188.725,313.6978,194.3782,313.4951,185.065,310.2913" style="stroke:#A80036;stroke-width:1.0;"/><path codeLine="20" d="M131.7071,64.614 C114.3033,82.7297 93.2202,104.6753 77.4081,121.1343 " fill="none" id="Invoke-backto-Command" style="stroke:#A80036;stroke-width:1.0;"/><polygon fill="#FFFFFF" points="140.9404,55.003,133.8991,56.5586,132.6268,63.6566,139.6681,62.101,140.9404,55.003" style="stroke:#A80036;stroke-width:1.0;"/></g></svg>