<?xml version="1.0" encoding="UTF-8" standalone="no"?><svg xmlns="http://www.w3.org/2000/svg" xmlns:xlink="http://www.w3.org/1999/xlink" contentScriptType="application/ecmascript" contentStyleType="text/css" height="267px" preserveAspectRatio="none" style="width:367px;height:267px;" version="1.1" viewBox="0 0 367 267" width="367px" zoomAndPan="magnify"><defs><filter height="300%" id="fdovlf3jivr0t" width="300%" x="-1" y="-1"><feGaussianBlur result="blurOut" stdDeviation="2.0"/><feColorMatrix in="blurOut" result="blurOut2" type="matrix" values="0 0 0 0 0 0 0 0 0 0 0 0 0 0 0 0 0 0 .4 0"/><feOffset dx="4.0" dy="4.0" in="blurOut2" result="blurOut3"/><feBlend in="SourceGraphic" in2="blurOut3" mode="normal"/></filter></defs><g><rect codeLine="2" fill="#FEFECE" filter="url(#fdovlf3jivr0t)" height="99.2188" id="AbstractClass" style="stroke:#A80036;stroke-width:1.5;" width="146" x="207" y="7"/><ellipse cx="234.6" cy="23" fill="#A9DCDF" rx="11" ry="11" style="stroke:#A80036;stroke-width:1.0;"/><path d="M234.7094,18.3438 L233.5531,23.4219 L235.8813,23.4219 L234.7094,18.3438 Z M233.225,16.1094 L236.2094,16.1094 L239.5688,28.5 L237.1156,28.5 L236.35,25.4375 L233.0688,25.4375 L232.3188,28.5 L229.8813,28.5 L233.225,16.1094 Z " fill="#000000"/><text fill="#000000" font-family="sans-serif" font-size="12" font-style="italic" lengthAdjust="spacing" textLength="86" x="251.4" y="27.1543">AbstractClass</text><line style="stroke:#A80036;stroke-width:1.5;" x1="208" x2="352" y1="39" y2="39"/><line style="stroke:#A80036;stroke-width:1.5;" x1="208" x2="352" y1="47" y2="47"/><ellipse cx="218" cy="58" fill="#84BE84" rx="3" ry="3" style="stroke:#038048;stroke-width:1.0;"/><text fill="#000000" font-family="sans-serif" font-size="11" lengthAdjust="spacing" textLength="102" x="227" y="61.2104">TemplateMethod()</text><ellipse cx="218" cy="70.8047" fill="#84BE84" rx="3" ry="3" style="stroke:#038048;stroke-width:1.0;"/><text fill="#000000" font-family="sans-serif" font-size="11" lengthAdjust="spacing" textLength="120" x="227" y="74.0151">PrimitiveOperation1()</text><ellipse cx="218" cy="83.6094" fill="#84BE84" rx="3" ry="3" style="stroke:#038048;stroke-width:1.0;"/><text fill="#000000" font-family="sans-serif" font-size="11" lengthAdjust="spacing" textLength="120" x="227" y="86.8198">PrimitiveOperation2()</text><ellipse cx="218" cy="96.4141" fill="#84BE84" rx="3" ry="3" style="stroke:#038048;stroke-width:1.0;"/><text fill="#000000" font-family="sans-serif" font-size="11" lengthAdjust="spacing" textLength="120" x="227" y="99.6245">PrimitiveOperation3()</text><path d="M6,6 L6,106.7969 A0,0 0 0 0 6,106.7969 L172,106.7969 A0,0 0 0 0 172,106.7969 L172,60.5 L206.7225,56.5 L172,52.5 L172,16 L162,6 L6,6 A0,0 0 0 0 6,6 " fill="#FBFB77" filter="url(#fdovlf3jivr0t)" style="stroke:#A80036;stroke-width:1.0;"/><path d="M162,6 L162,16 L172,16 L162,6 " fill="#FBFB77" style="stroke:#A80036;stroke-width:1.0;"/><text fill="#000000" font-family="sans-serif" font-size="13" lengthAdjust="spacing" textLength="24" x="12" y="23.0669">······</text><text fill="#000000" font-family="sans-serif" font-size="13" lengthAdjust="spacing" textLength="145" x="12" y="38.1997">PrimitiverOperation1();</text><text fill="#000000" font-family="sans-serif" font-size="13" lengthAdjust="spacing" textLength="24" x="12" y="53.3325">······</text><text fill="#000000" font-family="sans-serif" font-size="13" lengthAdjust="spacing" textLength="145" x="12" y="68.4653">PrimitiverOperation2();</text><text fill="#000000" font-family="sans-serif" font-size="13" lengthAdjust="spacing" textLength="24" x="12" y="83.5981">······</text><text fill="#000000" font-family="sans-serif" font-size="13" lengthAdjust="spacing" textLength="145" x="12" y="98.731">PrimitiverOperation3();</text><rect codeLine="10" fill="#FEFECE" filter="url(#fdovlf3jivr0t)" height="86.4141" id="ConcreteClass" style="stroke:#A80036;stroke-width:1.5;" width="146" x="207" y="167"/><ellipse cx="232.8" cy="183" fill="#ADD1B2" rx="11" ry="11" style="stroke:#A80036;stroke-width:1.0;"/><path d="M235.7688,188.6406 Q235.1906,188.9375 234.55,189.0859 Q233.9094,189.2344 233.2063,189.2344 Q230.7063,189.2344 229.3859,187.5859 Q228.0656,185.9375 228.0656,182.8125 Q228.0656,179.6875 229.3859,178.0313 Q230.7063,176.375 233.2063,176.375 Q233.9094,176.375 234.5578,176.5313 Q235.2063,176.6875 235.7688,176.9844 L235.7688,179.7031 Q235.1438,179.125 234.55,178.8516 Q233.9563,178.5781 233.3313,178.5781 Q231.9875,178.5781 231.3,179.6484 Q230.6125,180.7188 230.6125,182.8125 Q230.6125,184.9063 231.3,185.9766 Q231.9875,187.0469 233.3313,187.0469 Q233.9563,187.0469 234.55,186.7734 Q235.1438,186.5 235.7688,185.9219 L235.7688,188.6406 Z " fill="#000000"/><text fill="#000000" font-family="sans-serif" font-size="12" lengthAdjust="spacing" textLength="90" x="249.2" y="187.1543">ConcreteClass</text><line style="stroke:#A80036;stroke-width:1.5;" x1="208" x2="352" y1="199" y2="199"/><line style="stroke:#A80036;stroke-width:1.5;" x1="208" x2="352" y1="207" y2="207"/><ellipse cx="218" cy="218" fill="#84BE84" rx="3" ry="3" style="stroke:#038048;stroke-width:1.0;"/><text fill="#000000" font-family="sans-serif" font-size="11" lengthAdjust="spacing" textLength="120" x="227" y="221.2104">PrimitiveOperation1()</text><ellipse cx="218" cy="230.8047" fill="#84BE84" rx="3" ry="3" style="stroke:#038048;stroke-width:1.0;"/><text fill="#000000" font-family="sans-serif" font-size="11" lengthAdjust="spacing" textLength="120" x="227" y="234.0151">PrimitiveOperation2()</text><ellipse cx="218" cy="243.6094" fill="#84BE84" rx="3" ry="3" style="stroke:#038048;stroke-width:1.0;"/><text fill="#000000" font-family="sans-serif" font-size="11" lengthAdjust="spacing" textLength="120" x="227" y="246.8198">PrimitiveOperation3()</text><path codeLine="16" d="M280,126.6835 C280,140.3826 280,154.3628 280,166.8612 " fill="none" id="AbstractClass-backto-ConcreteClass" style="stroke:#A80036;stroke-width:1.0;stroke-dasharray:7.0,7.0;"/><polygon fill="none" points="273.0001,126.3371,280,106.3371,287.0001,126.337,273.0001,126.3371" style="stroke:#A80036;stroke-width:1.0;"/></g></svg>