<?xml version="1.0" encoding="UTF-8" standalone="no"?><svg xmlns="http://www.w3.org/2000/svg" xmlns:xlink="http://www.w3.org/1999/xlink" contentScriptType="application/ecmascript" contentStyleType="text/css" height="292px" preserveAspectRatio="none" style="width:281px;height:292px;" version="1.1" viewBox="0 0 281 292" width="281px" zoomAndPan="magnify"><defs><filter height="300%" id="f1jtfag87jwq0x" width="300%" x="-1" y="-1"><feGaussianBlur result="blurOut" stdDeviation="2.0"/><feColorMatrix in="blurOut" result="blurOut2" type="matrix" values="0 0 0 0 0 0 0 0 0 0 0 0 0 0 0 0 0 0 .4 0"/><feOffset dx="4.0" dy="4.0" in="blurOut2" result="blurOut3"/><feBlend in="SourceGraphic" in2="blurOut3" mode="normal"/></filter></defs><g><rect codeLine="2" fill="#FEFECE" filter="url(#f1jtfag87jwq0x)" height="112.0234" id="制作饮料" style="stroke:#A80036;stroke-width:1.5;" width="80" x="132.5" y="7"/><ellipse cx="147.5" cy="23" fill="#A9DCDF" rx="11" ry="11" style="stroke:#A80036;stroke-width:1.0;"/><path d="M147.6094,18.3438 L146.4531,23.4219 L148.7813,23.4219 L147.6094,18.3438 Z M146.125,16.1094 L149.1094,16.1094 L152.4688,28.5 L150.0156,28.5 L149.25,25.4375 L145.9688,25.4375 L145.2188,28.5 L142.7813,28.5 L146.125,16.1094 Z " fill="#000000"/><text fill="#000000" font-family="sans-serif" font-size="12" font-style="italic" lengthAdjust="spacing" textLength="48" x="161.5" y="27.1543">制作饮料</text><line style="stroke:#A80036;stroke-width:1.5;" x1="133.5" x2="211.5" y1="39" y2="39"/><line style="stroke:#A80036;stroke-width:1.5;" x1="133.5" x2="211.5" y1="47" y2="47"/><ellipse cx="143.5" cy="58" fill="#84BE84" rx="3" ry="3" style="stroke:#038048;stroke-width:1.0;"/><text fill="#000000" font-family="sans-serif" font-size="11" lengthAdjust="spacing" textLength="41" x="152.5" y="61.2104">煮开水()</text><ellipse cx="143.5" cy="70.8047" fill="#84BE84" rx="3" ry="3" style="stroke:#038048;stroke-width:1.0;"/><text fill="#000000" font-family="sans-serif" font-size="11" lengthAdjust="spacing" textLength="30" x="152.5" y="74.0151">冲泡()</text><ellipse cx="143.5" cy="83.6094" fill="#84BE84" rx="3" ry="3" style="stroke:#038048;stroke-width:1.0;"/><text fill="#000000" font-family="sans-serif" font-size="11" lengthAdjust="spacing" textLength="52" x="152.5" y="86.8198">倒入杯中()</text><ellipse cx="143.5" cy="96.4141" fill="#84BE84" rx="3" ry="3" style="stroke:#038048;stroke-width:1.0;"/><text fill="#000000" font-family="sans-serif" font-size="11" lengthAdjust="spacing" textLength="30" x="152.5" y="99.6245">加料()</text><ellipse cx="143.5" cy="109.2188" fill="#84BE84" rx="3" ry="3" style="stroke:#038048;stroke-width:1.0;"/><text fill="#000000" font-family="sans-serif" font-size="11" lengthAdjust="spacing" textLength="52" x="152.5" y="112.4292">准备制作()</text><path d="M6,12.5 L6,113.2969 A0,0 0 0 0 6,113.2969 L97,113.2969 A0,0 0 0 0 97,113.2969 L97,67 L132.2818,63 L97,59 L97,22.5 L87,12.5 L6,12.5 A0,0 0 0 0 6,12.5 " fill="#FBFB77" filter="url(#f1jtfag87jwq0x)" style="stroke:#A80036;stroke-width:1.0;"/><path d="M87,12.5 L87,22.5 L97,22.5 L87,12.5 " fill="#FBFB77" style="stroke:#A80036;stroke-width:1.0;"/><text fill="#000000" font-family="sans-serif" font-size="13" lengthAdjust="spacing" textLength="70" x="12" y="29.5669">准备制作(){</text><text fill="#000000" font-family="sans-serif" font-size="13" lengthAdjust="spacing" textLength="49" x="20" y="44.6997">煮开水()</text><text fill="#000000" font-family="sans-serif" font-size="13" lengthAdjust="spacing" textLength="36" x="20" y="59.8325">冲泡()</text><text fill="#000000" font-family="sans-serif" font-size="13" lengthAdjust="spacing" textLength="62" x="20" y="74.9653">倒入杯中()</text><text fill="#000000" font-family="sans-serif" font-size="13" lengthAdjust="spacing" textLength="36" x="20" y="90.0981">加料()</text><text fill="#000000" font-family="sans-serif" font-size="13" lengthAdjust="spacing" textLength="8" x="12" y="105.231">}</text><rect codeLine="12" fill="#FEFECE" filter="url(#f1jtfag87jwq0x)" height="99.2188" id="咖啡" style="stroke:#A80036;stroke-width:1.5;" width="78" x="76.5" y="179"/><ellipse cx="101.4" cy="195" fill="#ADD1B2" rx="11" ry="11" style="stroke:#A80036;stroke-width:1.0;"/><path d="M104.3688,200.6406 Q103.7906,200.9375 103.15,201.0859 Q102.5094,201.2344 101.8063,201.2344 Q99.3063,201.2344 97.9859,199.5859 Q96.6656,197.9375 96.6656,194.8125 Q96.6656,191.6875 97.9859,190.0313 Q99.3063,188.375 101.8063,188.375 Q102.5094,188.375 103.1578,188.5313 Q103.8063,188.6875 104.3688,188.9844 L104.3688,191.7031 Q103.7438,191.125 103.15,190.8516 Q102.5563,190.5781 101.9313,190.5781 Q100.5875,190.5781 99.9,191.6484 Q99.2125,192.7188 99.2125,194.8125 Q99.2125,196.9063 99.9,197.9766 Q100.5875,199.0469 101.9313,199.0469 Q102.5563,199.0469 103.15,198.7734 Q103.7438,198.5 104.3688,197.9219 L104.3688,200.6406 Z " fill="#000000"/><text fill="#000000" font-family="sans-serif" font-size="12" lengthAdjust="spacing" textLength="24" x="117.6" y="199.1543">咖啡</text><line style="stroke:#A80036;stroke-width:1.5;" x1="77.5" x2="153.5" y1="211" y2="211"/><line style="stroke:#A80036;stroke-width:1.5;" x1="77.5" x2="153.5" y1="219" y2="219"/><ellipse cx="87.5" cy="230" fill="#84BE84" rx="3" ry="3" style="stroke:#038048;stroke-width:1.0;"/><text fill="#000000" font-family="sans-serif" font-size="11" lengthAdjust="spacing" textLength="41" x="96.5" y="233.2104">煮开水()</text><ellipse cx="87.5" cy="242.8047" fill="#84BE84" rx="3" ry="3" style="stroke:#038048;stroke-width:1.0;"/><text fill="#000000" font-family="sans-serif" font-size="11" lengthAdjust="spacing" textLength="30" x="96.5" y="246.0151">冲泡()</text><ellipse cx="87.5" cy="255.6094" fill="#84BE84" rx="3" ry="3" style="stroke:#038048;stroke-width:1.0;"/><text fill="#000000" font-family="sans-serif" font-size="11" lengthAdjust="spacing" textLength="52" x="96.5" y="258.8198">倒入杯中()</text><ellipse cx="87.5" cy="268.4141" fill="#84BE84" rx="3" ry="3" style="stroke:#038048;stroke-width:1.0;"/><text fill="#000000" font-family="sans-serif" font-size="11" lengthAdjust="spacing" textLength="30" x="96.5" y="271.6245">加料()</text><rect codeLine="18" fill="#FEFECE" filter="url(#f1jtfag87jwq0x)" height="99.2188" id="茶" style="stroke:#A80036;stroke-width:1.5;" width="78" x="189.5" y="179"/><ellipse cx="219.8" cy="195" fill="#ADD1B2" rx="11" ry="11" style="stroke:#A80036;stroke-width:1.0;"/><path d="M222.7688,200.6406 Q222.1906,200.9375 221.55,201.0859 Q220.9094,201.2344 220.2063,201.2344 Q217.7063,201.2344 216.3859,199.5859 Q215.0656,197.9375 215.0656,194.8125 Q215.0656,191.6875 216.3859,190.0313 Q217.7063,188.375 220.2063,188.375 Q220.9094,188.375 221.5578,188.5313 Q222.2063,188.6875 222.7688,188.9844 L222.7688,191.7031 Q222.1438,191.125 221.55,190.8516 Q220.9563,190.5781 220.3313,190.5781 Q218.9875,190.5781 218.3,191.6484 Q217.6125,192.7188 217.6125,194.8125 Q217.6125,196.9063 218.3,197.9766 Q218.9875,199.0469 220.3313,199.0469 Q220.9563,199.0469 221.55,198.7734 Q222.1438,198.5 222.7688,197.9219 L222.7688,200.6406 Z " fill="#000000"/><text fill="#000000" font-family="sans-serif" font-size="12" lengthAdjust="spacing" textLength="12" x="237.2" y="199.1543">茶</text><line style="stroke:#A80036;stroke-width:1.5;" x1="190.5" x2="266.5" y1="211" y2="211"/><line style="stroke:#A80036;stroke-width:1.5;" x1="190.5" x2="266.5" y1="219" y2="219"/><ellipse cx="200.5" cy="230" fill="#84BE84" rx="3" ry="3" style="stroke:#038048;stroke-width:1.0;"/><text fill="#000000" font-family="sans-serif" font-size="11" lengthAdjust="spacing" textLength="41" x="209.5" y="233.2104">煮开水()</text><ellipse cx="200.5" cy="242.8047" fill="#84BE84" rx="3" ry="3" style="stroke:#038048;stroke-width:1.0;"/><text fill="#000000" font-family="sans-serif" font-size="11" lengthAdjust="spacing" textLength="30" x="209.5" y="246.0151">冲泡()</text><ellipse cx="200.5" cy="255.6094" fill="#84BE84" rx="3" ry="3" style="stroke:#038048;stroke-width:1.0;"/><text fill="#000000" font-family="sans-serif" font-size="11" lengthAdjust="spacing" textLength="52" x="209.5" y="258.8198">倒入杯中()</text><ellipse cx="200.5" cy="268.4141" fill="#84BE84" rx="3" ry="3" style="stroke:#038048;stroke-width:1.0;"/><text fill="#000000" font-family="sans-serif" font-size="11" lengthAdjust="spacing" textLength="30" x="209.5" y="271.6245">加料()</text><path codeLine="25" d="M146.6011,138.1976 C141.8464,152.003 136.9943,166.0911 132.5802,178.9076 " fill="none" id="制作饮料-backto-咖啡" style="stroke:#A80036;stroke-width:1.0;stroke-dasharray:7.0,7.0;"/><polygon fill="none" points="140.0711,135.6611,153.2024,119.0308,153.308,140.2201,140.0711,135.6611" style="stroke:#A80036;stroke-width:1.0;"/><path codeLine="26" d="M197.9445,138.1976 C202.6158,152.003 207.3828,166.0911 211.7195,178.9076 " fill="none" id="制作饮料-backto-茶" style="stroke:#A80036;stroke-width:1.0;stroke-dasharray:7.0,7.0;"/><polygon fill="none" points="191.2388,140.2193,191.459,119.0308,204.5002,135.732,191.2388,140.2193" style="stroke:#A80036;stroke-width:1.0;"/></g></svg>